<?xml version="1.0" encoding="UTF-8" standalone="no"?>
<!DOCTYPE svg PUBLIC "-//W3C//DTD SVG 1.1//EN" "http://www.w3.org/Graphics/SVG/1.1/DTD/svg11.dtd">
<svg width="100%" height="100%" viewBox="0 0 92 92" version="1.1" xmlns="http://www.w3.org/2000/svg" xmlns:xlink="http://www.w3.org/1999/xlink" xml:space="preserve" style="fill-rule:evenodd;clip-rule:evenodd;stroke-linejoin:round;stroke-miterlimit:1.41421;">
    <g transform="matrix(1,0,0,1,-49.3316,-33.4196)">
        <g transform="matrix(1.17421,0,0,1.17421,-309.609,-596.262)">
            <circle cx="344.539" cy="575.112" r="38.851" style="fill:rgb(255,219,87);"/>
        </g>
        <g id="back.-button" transform="matrix(0.279716,0,0,0.279716,94.9509,79.0389)">
            <g transform="matrix(1,0,0,1,-109.576,-109.576)">
                <g>
                    <path d="M109.576,219.151C169.995,219.151 219.149,169.995 219.149,109.575C219.149,49.156 169.995,0 109.576,0C49.157,0 0.002,49.156 0.002,109.575C0.002,169.995 49.157,219.151 109.576,219.151ZM109.576,15C161.724,15 204.149,57.426 204.15,109.575C204.15,161.724 161.725,204.15 109.576,204.151C57.428,204.15 15.003,161.724 15.003,109.574C15.003,57.427 57.428,15 109.576,15Z" style="fill-rule:nonzero;"/>
                    <path d="M94.861,156.507C97.79,159.435 102.539,159.434 105.467,156.507C108.397,153.577 108.397,148.829 105.466,145.899L76.646,117.08L160.103,117.072C164.245,117.071 167.602,113.714 167.602,109.57C167.601,105.428 164.244,102.072 160.102,102.072L76.642,102.08L105.469,73.255C108.398,70.326 108.398,65.576 105.469,62.648C104.004,61.184 102.085,60.451 100.165,60.451C98.246,60.451 96.327,61.184 94.862,62.647L53.233,104.275C51.826,105.681 51.036,107.588 51.036,109.578C51.037,111.568 51.827,113.474 53.234,114.883L94.861,156.507Z" style="fill-rule:nonzero;"/>
                </g>
            </g>
        </g>
    </g>
</svg>
