<?xml version="1.0" encoding="UTF-8" standalone="no"?>
<!DOCTYPE svg PUBLIC "-//W3C//DTD SVG 1.1//EN" "http://www.w3.org/Graphics/SVG/1.1/DTD/svg11.dtd">
<svg width="100%" height="100%" viewBox="0 0 104 97" version="1.1" xmlns="http://www.w3.org/2000/svg" xmlns:xlink="http://www.w3.org/1999/xlink" xml:space="preserve" style="fill-rule:evenodd;clip-rule:evenodd;stroke-linejoin:round;stroke-miterlimit:1.41421;">
    <g transform="matrix(1,0,0,1,-186.817,-710.342)">
        <g transform="matrix(0.625651,0,0,0.587665,-24.2372,650.318)">
            <circle cx="419.832" cy="184.636" r="82.496" style="fill:rgb(255,229,117);"/>
        </g>
        <g id="blogging" transform="matrix(0.122197,0,0,0.114778,238.431,758.822)">
            <g transform="matrix(1,0,0,1,-256,-256)">
                <clipPath id="_clip1">
                    <rect x="0" y="0" width="512.001" height="512"/>
                </clipPath>
                <g clip-path="url(#_clip1)">
                    <path d="M255,202C266.047,202 275,210.953 275,222C275,233.047 266.047,242 255,242C243.953,242 235,233.047 235,222C235,210.953 243.953,202 255,202ZM325,222C325,233.047 333.953,242 345,242C356.047,242 365,233.047 365,222C365,210.953 356.047,202 345,202C333.953,202 325,210.953 325,222ZM145,222C145,233.047 153.953,242 165,242C176.047,242 185,233.047 185,222C185,210.953 176.047,202 165,202C153.953,202 145,210.953 145,222ZM494.414,409.563C517.82,432.969 517.82,471.031 494.426,494.426C482.73,506.121 467.363,511.973 452,511.973C436.637,511.973 421.27,506.121 409.574,494.426L299.785,384.883C297.453,382.555 295.734,379.691 294.777,376.535L270.863,297.813C268.742,290.832 270.59,283.254 275.684,278.031C280.777,272.813 288.309,270.781 295.34,272.727L376.063,295.086C379.387,296.008 382.414,297.77 384.855,300.207L494.414,409.563ZM331.59,360.109L405.68,434.035L433.969,405.746L360.316,332.234L319.707,320.984L331.59,360.109ZM466.141,437.859L462.281,434.004L433.996,462.289L437.844,466.125C445.656,473.941 458.344,473.941 466.141,466.141C473.941,458.344 473.941,445.656 466.141,437.859L466.141,437.859ZM267.125,414.453C263.43,414.613 259.688,414.695 256,414.695C223.84,414.695 192.879,408.707 163.98,396.898C159.059,394.891 153.535,394.922 148.637,396.988L57.57,435.43L88.254,362.746C91.254,355.641 89.898,347.438 84.766,341.672C55.48,308.773 40,269.41 40,227.848C40,124.27 136.898,40 256,40C375.102,40 472,124.27 472,227.848C472,252.41 465.969,277.07 454.07,301.137C449.176,311.039 453.234,323.035 463.137,327.93C473.039,332.824 485.035,328.766 489.93,318.863C504.574,289.234 512,258.613 512,227.848C512,102.211 397.16,0 256,0C114.844,0 0,102.211 0,227.848C0,275.27 16.078,320.18 46.637,358.48L1.574,465.223C-1.59,472.719 0.105,481.387 5.859,487.141C9.688,490.969 14.801,493 20.004,493C22.625,493 25.27,492.484 27.777,491.426L156.707,437C188.152,448.746 221.516,454.695 256,454.695C260.266,454.695 264.598,454.598 268.875,454.414C279.91,453.93 288.465,444.594 287.98,433.559C287.5,422.523 278.145,413.941 267.125,414.453L267.125,414.453Z" style="fill-rule:nonzero;"/>
                </g>
            </g>
        </g>
    </g>
</svg>
