<?xml version="1.0" encoding="UTF-8" standalone="no"?>
<!DOCTYPE svg PUBLIC "-//W3C//DTD SVG 1.1//EN" "http://www.w3.org/Graphics/SVG/1.1/DTD/svg11.dtd">
<svg width="100%" height="100%" viewBox="0 0 104 97" version="1.1" xmlns="http://www.w3.org/2000/svg" xmlns:xlink="http://www.w3.org/1999/xlink" xml:space="preserve" style="fill-rule:evenodd;clip-rule:evenodd;stroke-linejoin:round;stroke-miterlimit:1.41421;">
    <g transform="matrix(1,0,0,1,-581.894,-710.342)">
        <g transform="matrix(0.625651,0,0,0.587665,370.84,650.318)">
            <circle cx="419.832" cy="184.636" r="82.496" style="fill:rgb(255,229,117);"/>
        </g>
        <g id="winner" transform="matrix(0.122197,0,0,0.114778,633.508,758.822)">
            <g transform="matrix(1,0,0,1,-256,-256)">
                <path d="M401.777,137.141L110.223,137.141C106.077,137.141 102.717,140.501 102.717,144.647C102.717,148.793 106.077,152.153 110.223,152.153L401.777,152.153C405.923,152.153 409.283,148.793 409.283,144.647C409.283,140.501 405.923,137.141 401.777,137.141Z" style="fill-rule:nonzero;"/>
                <path d="M401.777,218.869L110.223,218.869C106.077,218.869 102.717,222.229 102.717,226.375C102.717,230.52 106.077,233.881 110.223,233.881L401.777,233.881C405.923,233.881 409.283,230.521 409.283,226.375C409.283,222.229 405.923,218.869 401.777,218.869Z" style="fill-rule:nonzero;"/>
                <path d="M306.193,271.909L205.807,271.909C201.661,271.909 198.301,275.269 198.301,279.415C198.301,283.56 201.661,286.921 205.807,286.921L306.193,286.921C310.339,286.921 313.699,283.561 313.699,279.415C313.699,275.269 310.339,271.909 306.193,271.909Z" style="fill-rule:nonzero;"/>
                <path d="M401.777,177.838L184.303,177.838C180.157,177.838 176.797,181.198 176.797,185.344C176.797,189.489 180.157,192.85 184.303,192.85L401.777,192.85C405.923,192.85 409.283,189.49 409.283,185.344C409.283,181.198 405.923,177.838 401.777,177.838Z" style="fill-rule:nonzero;"/>
                <path d="M149.381,177.837L110.223,177.837C106.077,177.837 102.717,181.197 102.717,185.343C102.717,189.489 106.077,192.849 110.223,192.849L149.381,192.849C153.527,192.849 156.887,189.489 156.887,185.343C156.887,181.198 153.527,177.837 149.381,177.837Z" style="fill-rule:nonzero;"/>
                <path d="M473.251,124.455C471.505,122.74 469.194,121.796 466.729,121.796C466.727,121.796 466.726,121.796 466.724,121.796C451.511,121.796 439.06,109.904 438.375,94.718C438.15,89.78 434.092,85.913 429.137,85.913L81.077,85.913C76.121,85.913 72.062,89.781 71.838,94.723C71.185,109.234 59.306,121.114 44.794,121.767C39.854,121.989 35.985,126.048 35.985,131.006L35.985,325.027C35.985,329.985 39.854,334.043 44.794,334.265C59.306,334.919 71.185,346.798 71.838,361.314C72.063,366.252 76.122,370.119 81.077,370.119L302.654,370.119C306.8,370.119 310.16,366.759 310.16,362.613C310.16,358.468 306.8,355.107 302.654,355.107L86.239,355.107C83.136,337.028 69.075,322.967 50.996,319.863L50.996,136.167C69.075,133.064 83.136,119 86.239,100.924L423.978,100.924C427.208,119.574 442.223,133.97 461.004,136.434L461.004,263.903C461.004,268.048 464.364,271.409 468.51,271.409C472.656,271.409 476.016,268.049 476.016,263.903L476.016,131.048C476.016,128.549 475.034,126.207 473.251,124.455Z" style="fill-rule:nonzero;"/>
                <path d="M491.165,48.445L20.835,48.445C9.347,48.445 0,57.792 0,69.28L0,386.75C0,398.239 9.347,407.585 20.835,407.585L335.883,407.585L324.729,430.958C323.296,433.959 323.645,437.478 325.637,440.14C327.63,442.803 330.909,444.126 334.19,443.601L354.956,440.263L366.539,459.276C368.163,461.944 371.049,463.554 374.15,463.554C374.301,463.554 374.453,463.55 374.605,463.542C377.877,463.376 380.786,461.436 382.199,458.478L402.325,416.305L422.449,458.475C423.859,461.433 426.768,463.375 430.041,463.543C430.194,463.551 430.348,463.555 430.5,463.555C433.601,463.555 436.487,461.945 438.111,459.278L449.694,440.265L470.46,443.604C473.751,444.13 477.024,442.803 479.015,440.139C481.007,437.475 481.353,433.957 479.92,430.961L468.766,407.588L491.165,407.588C502.653,407.588 512,398.242 512,386.753L512,69.28C512,57.792 502.653,48.445 491.165,48.445ZM373.501,441.85L365.644,428.955C363.752,425.849 360.21,424.215 356.616,424.792L343.282,426.936L357.328,397.504C362.864,403.153 370.751,406.205 378.938,405.434C381.737,405.166 384.543,405.92 386.836,407.549C387.592,408.087 388.377,408.564 389.172,409.014L373.501,441.85ZM404.115,397.342C404.092,397.345 404.069,397.347 404.045,397.351C402.907,397.519 401.75,397.519 400.612,397.352C400.583,397.348 400.554,397.345 400.526,397.341C398.763,397.068 397.049,396.393 395.531,395.314C390.991,392.086 385.57,390.37 380.04,390.37C379.202,390.37 378.362,390.41 377.522,390.489C372.553,390.958 367.832,388.229 365.758,383.697C364.837,381.685 363.662,379.823 362.298,378.12C362.238,378.035 362.172,377.955 362.109,377.873C362.033,377.781 361.962,377.686 361.886,377.595C361.799,377.493 361.708,377.396 361.615,377.299C359.133,374.443 356.066,372.111 352.573,370.513C348.04,368.439 345.311,363.711 345.781,358.748C346.385,352.362 344.672,345.966 340.956,340.739C338.067,336.676 338.067,331.217 340.955,327.154C344.672,321.927 346.385,315.531 345.781,309.145C345.311,304.182 348.041,299.454 352.573,297.38C358.406,294.711 363.088,290.029 365.757,284.196C367.832,279.663 372.57,276.933 377.522,277.404C383.915,278.007 390.305,276.294 395.532,272.578C399.596,269.69 405.055,269.69 409.117,272.578C414.345,276.294 420.736,278.003 427.127,277.404C432.094,276.932 436.819,279.664 438.893,284.196C441.562,290.029 446.244,294.711 452.076,297.379C456.609,299.454 459.339,304.182 458.869,309.144C458.265,315.531 459.978,321.927 463.694,327.153C466.583,331.216 466.583,336.675 463.694,340.738C459.978,345.966 458.265,352.362 458.869,358.747C459.339,363.71 456.609,368.438 452.075,370.513C448.59,372.108 445.53,374.434 443.051,377.281C442.949,377.387 442.849,377.494 442.755,377.605C442.69,377.683 442.629,377.764 442.564,377.843C442.489,377.939 442.413,378.033 442.343,378.132C440.983,379.832 439.811,381.69 438.893,383.697C436.818,388.229 432.09,390.96 427.127,390.489C420.747,389.888 414.347,391.598 409.117,395.314C407.597,396.394 405.881,397.07 404.115,397.342ZM448.033,424.791C444.438,424.216 440.898,425.849 439.005,428.956L431.149,441.851L415.478,409.014C416.273,408.564 417.057,408.087 417.814,407.549C420.108,405.919 422.916,405.163 425.712,405.433C433.902,406.205 441.787,403.153 447.323,397.504L461.368,426.935L448.033,424.791ZM496.989,386.751C496.989,389.962 494.377,392.575 491.165,392.575L461.602,392.575L457.732,384.465C457.927,384.362 458.121,384.254 458.323,384.162C468.659,379.431 474.884,368.649 473.813,357.333C473.548,354.533 474.299,351.728 475.929,349.435C482.515,340.17 482.515,327.72 475.928,318.455C474.299,316.163 473.548,313.359 473.813,310.558C474.884,299.242 468.659,288.46 458.322,283.729C455.765,282.558 453.712,280.505 452.541,277.948C447.811,267.611 437.024,261.388 425.711,262.458C422.909,262.725 420.106,261.972 417.814,260.342C408.549,253.756 396.098,253.755 386.834,260.342C384.541,261.972 381.73,262.725 378.937,262.457C367.607,261.391 356.837,267.611 352.108,277.947C350.937,280.505 348.884,282.557 346.326,283.728C335.99,288.459 329.765,299.24 330.836,310.557C331.101,313.358 330.35,316.162 328.72,318.455C322.134,327.72 322.134,340.17 328.72,349.434C330.35,351.726 331.101,354.531 330.836,357.332C329.765,368.649 335.99,379.431 346.326,384.161C346.528,384.253 346.721,384.361 346.916,384.464L343.046,392.575L20.835,392.575C17.624,392.575 15.011,389.963 15.011,386.751L15.011,69.28C15.011,66.069 17.623,63.456 20.835,63.456L491.165,63.456C494.376,63.456 496.989,66.069 496.989,69.28L496.989,386.751Z" style="fill-rule:nonzero;"/>
                <path d="M401.777,287.312C376.063,287.312 355.143,308.232 355.143,333.945C355.143,359.659 376.063,380.579 401.777,380.579C427.491,380.579 448.41,359.658 448.41,333.945C448.41,308.231 427.491,287.312 401.777,287.312ZM401.777,365.567C384.34,365.567 370.154,351.381 370.154,333.944C370.154,316.508 384.34,302.322 401.777,302.322C419.213,302.322 433.399,316.508 433.399,333.944C433.399,351.381 419.213,365.567 401.777,365.567Z" style="fill-rule:nonzero;"/>
            </g>
        </g>
    </g>
</svg>
