<?xml version="1.0" encoding="UTF-8" standalone="no"?>
<!DOCTYPE svg PUBLIC "-//W3C//DTD SVG 1.1//EN" "http://www.w3.org/Graphics/SVG/1.1/DTD/svg11.dtd">
<svg width="100%" height="100%" viewBox="0 0 104 97" version="1.1" xmlns="http://www.w3.org/2000/svg" xmlns:xlink="http://www.w3.org/1999/xlink" xml:space="preserve" style="fill-rule:evenodd;clip-rule:evenodd;stroke-linejoin:round;stroke-miterlimit:1.41421;">
    <g transform="matrix(1,0,0,1,-472.073,-710.342)">
        <g transform="matrix(0.625651,0,0,0.587665,261.019,650.318)">
            <circle cx="419.832" cy="184.636" r="82.496" style="fill:rgb(255,229,117);"/>
        </g>
        <g id="web.-programming" transform="matrix(0.147559,0,0,0.1386,523.687,758.822)">
            <g transform="matrix(1,0,0,1,-212,-212)">
                <g transform="matrix(1,0,0,1,0,25)">
                    <path d="M167.289,272.133C165.688,272.133 164.074,271.582 162.758,270.461L117.461,231.891C115.898,230.559 115,228.613 115,226.559C115,224.508 115.902,222.563 117.461,221.23L162.758,182.66C165.699,180.152 170.117,180.508 172.625,183.449C175.129,186.395 174.777,190.813 171.832,193.316L132.797,226.559L171.832,259.801C174.777,262.309 175.129,266.727 172.625,269.668C171.238,271.297 169.27,272.133 167.289,272.133Z" style="fill-rule:nonzero;"/>
                </g>
                <g transform="matrix(1,0,0,1,0,25)">
                    <path d="M256.711,272.133C254.73,272.133 252.762,271.297 251.379,269.668C248.871,266.727 249.227,262.309 252.168,259.801L291.203,226.559L252.168,193.316C249.227,190.813 248.871,186.395 251.379,183.449C253.883,180.508 258.305,180.152 261.242,182.66L306.539,221.23C308.102,222.563 309,224.508 309,226.559C309,228.613 308.102,230.559 306.539,231.891L261.242,270.461C259.926,271.582 258.313,272.133 256.711,272.133L256.711,272.133Z" style="fill-rule:nonzero;"/>
                </g>
                <g transform="matrix(1,0,0,1,0,25)">
                    <path d="M195.965,301.063C195.484,301.063 195,301.012 194.512,300.91C190.73,300.113 188.309,296.398 189.105,292.617L217.336,158.582C218.133,154.801 221.844,152.379 225.629,153.176C229.41,153.973 231.832,157.684 231.035,161.469L202.805,295.504C202.109,298.801 199.203,301.063 195.965,301.063L195.965,301.063Z" style="fill-rule:nonzero;"/>
                </g>
                <g transform="matrix(1,0,0,1,0,25)">
                    <path d="M377,374.086L47,374.086C21.086,374.086 0,353.004 0,327.086L0,47C0,21.086 21.086,0 47,0L377,0C402.914,0 424,21.086 424,47L424,327.086C424,353.004 402.914,374.086 377,374.086ZM47,14C28.805,14 14,28.805 14,47L14,327.086C14,345.281 28.805,360.086 47,360.086L377,360.086C395.195,360.086 410,345.281 410,327.086L410,47C410,28.805 395.195,14 377,14L47,14Z" style="fill-rule:nonzero;"/>
                </g>
                <g transform="matrix(1,0,0,1,0,25)">
                    <path d="M417,112.09L7,112.09C3.133,112.09 0,108.957 0,105.09C0,101.227 3.133,98.09 7,98.09L417,98.09C420.867,98.09 424,101.227 424,105.09C424,108.957 420.867,112.09 417,112.09Z" style="fill-rule:nonzero;"/>
                </g>
                <g transform="matrix(1,0,0,1,0,25)">
                    <path d="M119.602,78.594C107.391,78.594 97.449,68.652 97.449,56.441C97.449,44.227 107.391,34.289 119.602,34.289C131.816,34.289 141.754,44.227 141.754,56.441C141.754,68.652 131.816,78.594 119.602,78.594ZM119.602,48.289C115.109,48.289 111.449,51.945 111.449,56.441C111.449,60.938 115.109,64.594 119.602,64.594C124.098,64.594 127.754,60.938 127.754,56.441C127.754,51.945 124.098,48.289 119.602,48.289Z" style="fill-rule:nonzero;"/>
                </g>
                <g transform="matrix(1,0,0,1,0,25)">
                    <path d="M51.539,78.379C39.324,78.379 29.387,68.441 29.387,56.227C29.387,44.012 39.324,34.074 51.539,34.074C63.754,34.074 73.691,44.012 73.691,56.227C73.691,68.441 63.754,78.379 51.539,78.379ZM51.539,48.074C47.047,48.074 43.387,51.734 43.387,56.227C43.387,60.723 47.047,64.379 51.539,64.379C56.035,64.379 59.691,60.723 59.691,56.227C59.691,51.734 56.035,48.074 51.539,48.074Z" style="fill-rule:nonzero;"/>
                </g>
                <g transform="matrix(1,0,0,1,0,25)">
                    <path d="M187.664,78.805C175.453,78.805 165.516,68.867 165.516,56.652C165.516,44.441 175.453,34.504 187.664,34.504C199.879,34.504 209.816,44.441 209.816,56.652C209.816,68.867 199.879,78.805 187.664,78.805ZM187.664,48.5C183.172,48.5 179.516,52.156 179.516,56.652C179.516,61.148 183.172,64.805 187.664,64.805C192.16,64.805 195.816,61.148 195.816,56.652C195.816,52.156 192.16,48.5 187.664,48.5Z" style="fill-rule:nonzero;"/>
                </g>
            </g>
        </g>
    </g>
</svg>
