<?xml version="1.0" encoding="UTF-8" standalone="no"?><!DOCTYPE svg PUBLIC "-//W3C//DTD SVG 1.1//EN" "http://www.w3.org/Graphics/SVG/1.1/DTD/svg11.dtd"><svg width="100%" height="100%" viewBox="0 0 574 539" version="1.1" xmlns="http://www.w3.org/2000/svg" xmlns:xlink="http://www.w3.org/1999/xlink" xml:space="preserve" xmlns:serif="http://www.serif.com/" style="fill-rule:evenodd;clip-rule:evenodd;stroke-linejoin:round;stroke-miterlimit:2;"><ellipse cx="286.743" cy="269.333" rx="286.743" ry="269.333" style="fill:#ffe575;"/><path d="M370.924,254.285c-1.724,-3.81 -5.513,-6.236 -9.685,-6.236l-42.569,0l0,-138.351c0,-5.875 -4.768,-10.642 -10.642,-10.642l-42.57,0c-5.875,0 -10.642,4.767 -10.642,10.642l0,138.351l-42.57,0c-4.172,0 -7.96,2.447 -9.684,6.236c-1.746,3.81 -1.065,8.259 1.681,11.409l74.497,85.139c2.022,2.32 4.938,3.639 8.003,3.639c3.065,0 5.981,-1.341 8.003,-3.639l74.496,-85.139c2.767,-3.129 3.406,-7.599 1.682,-11.409Z" style="fill-rule:nonzero;"/><path d="M403.809,333.188l0,63.854l-234.132,0l0,-63.854l-42.57,0l0,85.138c0,11.771 9.536,21.285 21.285,21.285l276.701,0c11.771,0 21.285,-9.514 21.285,-21.285l0,-85.138l-42.569,0Z" style="fill-rule:nonzero;"/></svg>