<?xml version="1.0" encoding="UTF-8" standalone="no"?>
<!DOCTYPE svg PUBLIC "-//W3C//DTD SVG 1.1//EN" "http://www.w3.org/Graphics/SVG/1.1/DTD/svg11.dtd">
<svg width="100%" height="100%" viewBox="0 0 92 92" version="1.1" xmlns="http://www.w3.org/2000/svg" xmlns:xlink="http://www.w3.org/1999/xlink" xml:space="preserve" style="fill-rule:evenodd;clip-rule:evenodd;stroke-linejoin:round;stroke-miterlimit:1.41421;">
    <g transform="matrix(1,0,0,1,-245.29,-529.721)">
        <g transform="matrix(1.17421,0,0,1.17421,-113.65,-99.9612)">
            <circle cx="344.539" cy="575.112" r="38.851" style="fill:rgb(255,219,87);"/>
        </g>
        <g id="external.-link.-symbol" transform="matrix(0.11983,0,0,0.11983,290.91,575.34)">
            <g transform="matrix(1,0,0,1,-255.813,-255.814)">
                <clipPath id="_clip1">
                    <rect x="0" y="0" width="511.626" height="511.627"/>
                </clipPath>
                <g clip-path="url(#_clip1)">
                    <g>
                        <path d="M392.857,292.354L374.583,292.354C371.914,292.354 369.724,293.209 368.02,294.927C366.302,296.635 365.447,298.824 365.447,301.49L365.447,392.851C365.447,405.414 360.977,416.166 352.032,425.113C343.087,434.058 332.331,438.527 319.768,438.527L82.224,438.527C69.662,438.527 58.907,434.058 49.96,425.113C41.015,416.167 36.543,405.415 36.543,392.851L36.543,155.31C36.543,142.748 41.014,131.997 49.96,123.051C58.907,114.104 69.662,109.633 82.224,109.633L283.218,109.633C285.887,109.633 288.077,108.774 289.788,107.063C291.499,105.35 292.354,103.163 292.354,100.496L292.354,82.221C292.354,79.559 291.499,77.368 289.788,75.658C288.077,73.945 285.887,73.09 283.218,73.09L82.224,73.09C59.576,73.09 40.208,81.132 24.122,97.215C8.042,113.297 0,132.665 0,155.313L0,392.855C0,415.502 8.042,434.873 24.123,450.95C40.209,467.034 59.577,475.08 82.225,475.08L319.768,475.08C342.415,475.08 361.785,467.034 377.869,450.95C393.954,434.873 401.996,415.503 401.996,392.855L401.996,301.497C401.996,298.828 401.14,296.638 399.422,294.927C397.709,293.209 395.519,292.354 392.857,292.354Z" style="fill-rule:nonzero;"/>
                        <path d="M506.199,41.971C502.582,38.354 498.294,36.547 493.349,36.547L347.171,36.547C342.223,36.547 337.938,38.354 334.324,41.971C330.707,45.586 328.896,49.869 328.896,54.818C328.896,59.767 330.707,64.051 334.324,67.668L384.571,117.916L198.424,304.067C196.518,305.97 195.568,308.16 195.568,310.63C195.568,313.109 196.521,315.298 198.424,317.201L230.972,349.745C232.875,351.648 235.065,352.597 237.539,352.597C240.013,352.597 242.204,351.649 244.106,349.745L430.254,163.597L480.505,213.845C484.119,217.462 488.403,219.271 493.352,219.271C498.301,219.271 502.585,217.462 506.203,213.845C509.82,210.229 511.627,205.947 511.627,200.998L511.627,54.818C511.626,49.866 509.813,45.586 506.199,41.971Z" style="fill-rule:nonzero;"/>
                    </g>
                </g>
            </g>
        </g>
    </g>
</svg>
