<?xml version="1.0" encoding="UTF-8" standalone="no"?><!DOCTYPE svg PUBLIC "-//W3C//DTD SVG 1.1//EN" "http://www.w3.org/Graphics/SVG/1.1/DTD/svg11.dtd"><svg width="100%" height="100%" viewBox="0 0 574 539" version="1.1" xmlns="http://www.w3.org/2000/svg" xmlns:xlink="http://www.w3.org/1999/xlink" xml:space="preserve" xmlns:serif="http://www.serif.com/" style="fill-rule:evenodd;clip-rule:evenodd;stroke-linejoin:round;stroke-miterlimit:2;"><ellipse cx="286.743" cy="269.333" rx="286.743" ry="269.333" style="fill:#ffe575;"/><path d="M391.841,197.996c3.673,0 6.651,-2.978 6.651,-6.651l0,-72.335c0,-11.003 -8.951,-19.954 -19.954,-19.954l-242.114,0c-11.003,0 -19.954,8.951 -19.954,19.954l0,300.647c0,11.003 8.951,19.954 19.954,19.954l242.114,0c11.003,0 19.954,-8.951 19.954,-19.954l0,-49.003c0,-3.674 -2.978,-6.651 -6.651,-6.651c-3.673,0 -6.652,2.977 -6.652,6.651l0,49.003c0,3.667 -2.984,6.651 -6.651,6.651l-242.114,0c-3.668,0 -6.651,-2.984 -6.651,-6.651l0,-300.647c0,-3.668 2.983,-6.651 6.651,-6.651l242.114,0c3.667,0 6.651,2.983 6.651,6.651l0,72.335c0,3.673 2.979,6.651 6.652,6.651Z" style="fill-rule:nonzero;"/><path d="M257.481,134.974c-33.742,0 -61.194,27.451 -61.194,61.193c0,17.505 7.39,33.314 19.211,44.478c0.222,0.237 0.457,0.461 0.715,0.665c10.889,9.963 25.38,16.05 41.267,16.05c15.887,0 30.379,-6.087 41.268,-16.05c0.257,-0.204 0.493,-0.429 0.714,-0.665c11.823,-11.164 19.213,-26.973 19.213,-44.478c0,-33.742 -27.452,-61.193 -61.194,-61.193Zm0,109.084c-10.861,0 -20.885,-3.64 -28.928,-9.757c5.846,-10.366 16.755,-16.849 28.928,-16.849c12.173,0 23.082,6.483 28.928,16.849c-8.044,6.117 -18.067,9.757 -28.928,9.757Zm-10.642,-50.551l0,-4.324c0,-5.868 4.774,-10.642 10.642,-10.642c5.868,0 10.642,4.774 10.642,10.642l0,4.324c0,5.868 -4.774,10.642 -10.642,10.642c-5.868,0 -10.642,-4.774 -10.642,-10.642Zm49.181,31.051c-4.906,-7.276 -11.704,-12.934 -19.598,-16.427c3.133,-4.049 5.004,-9.121 5.004,-14.624l0,-4.324c0,-13.204 -10.741,-23.945 -23.945,-23.945c-13.204,0 -23.945,10.741 -23.945,23.945l0,4.324c0,5.503 1.871,10.575 5.004,14.624c-7.894,3.493 -14.692,9.151 -19.598,16.427c-5.872,-7.951 -9.352,-17.77 -9.352,-28.391c0,-26.407 21.484,-47.89 47.891,-47.89c26.407,0 47.891,21.483 47.891,47.89c0,10.621 -3.48,20.44 -9.352,28.391Z" style="fill-rule:nonzero;"/><path d="M293.399,390.39l-35.918,0c-3.673,0 -6.652,2.978 -6.652,6.652c0,3.673 2.979,6.651 6.652,6.651l35.918,0c3.673,0 6.651,-2.978 6.651,-6.651c0,-3.674 -2.978,-6.652 -6.651,-6.652Z" style="fill-rule:nonzero;"/><path d="M293.399,353.142l-94.451,0c-3.673,0 -6.651,2.978 -6.651,6.651c0,3.674 2.978,6.652 6.651,6.652l94.451,0c3.673,0 6.651,-2.978 6.651,-6.652c0,-3.673 -2.978,-6.651 -6.651,-6.651Z" style="fill-rule:nonzero;"/><path d="M293.399,315.894l-94.451,0c-3.673,0 -6.651,2.978 -6.651,6.651c0,3.674 2.978,6.652 6.651,6.652l94.451,0c3.673,0 6.651,-2.978 6.651,-6.652c0,-3.673 -2.978,-6.651 -6.651,-6.651Z" style="fill-rule:nonzero;"/><path d="M175.241,280.594c-1.236,-1.237 -2.952,-1.949 -4.708,-1.949c-1.75,0 -3.466,0.712 -4.703,1.949c-1.237,1.238 -1.949,2.954 -1.949,4.703c0,1.749 0.711,3.465 1.949,4.703c1.244,1.237 2.953,1.948 4.703,1.948c1.756,0 3.465,-0.711 4.708,-1.948c1.238,-1.238 1.95,-2.954 1.95,-4.703c0,-1.749 -0.712,-3.465 -1.95,-4.703Z" style="fill-rule:nonzero;"/><path d="M175.241,317.843c-1.243,-1.238 -2.952,-1.949 -4.708,-1.949c-1.75,0 -3.459,0.711 -4.703,1.949c-1.237,1.237 -1.949,2.953 -1.949,4.702c0,1.75 0.711,3.466 1.949,4.703c1.244,1.237 2.953,1.949 4.703,1.949c1.756,0 3.465,-0.712 4.708,-1.949c1.238,-1.237 1.95,-2.953 1.95,-4.703c0,-1.749 -0.712,-3.465 -1.95,-4.702Z" style="fill-rule:nonzero;"/><path d="M175.241,355.091c-1.243,-1.237 -2.952,-1.949 -4.708,-1.949c-1.75,0 -3.459,0.712 -4.703,1.949c-1.237,1.237 -1.949,2.953 -1.949,4.702c0,1.75 0.711,3.466 1.949,4.703c1.237,1.237 2.953,1.949 4.703,1.949c1.756,0 3.472,-0.712 4.708,-1.949c1.238,-1.237 1.95,-2.953 1.95,-4.703c0,-1.749 -0.712,-3.465 -1.95,-4.702Z" style="fill-rule:nonzero;"/><path d="M293.399,278.645l-94.451,0c-3.673,0 -6.651,2.978 -6.651,6.652c0,3.674 2.978,6.651 6.651,6.651l94.451,0c3.673,0 6.651,-2.977 6.651,-6.651c0,-3.674 -2.978,-6.652 -6.651,-6.652Z" style="fill-rule:nonzero;"/><path d="M443.054,185.738c-6.462,-3.731 -13.99,-4.722 -21.199,-2.791c-7.208,1.931 -13.233,6.554 -16.963,13.016l-83.703,144.978c-0.458,0.794 -0.748,1.676 -0.85,2.588l-5.892,52.775c-0.293,2.626 0.996,5.177 3.284,6.499c1.033,0.596 2.181,0.891 3.325,0.891c1.392,0 2.778,-0.436 3.945,-1.296l42.759,-31.491c0.739,-0.544 1.357,-1.235 1.816,-2.03l83.702,-144.977c7.703,-13.34 3.116,-30.46 -10.224,-38.162Zm-113.7,196.933l3.077,-27.559l19.251,11.115l-22.328,16.444Zm32.027,-26.206l-25.345,-14.633l67.169,-116.341l25.346,14.633l-67.17,116.341Zm80.377,-139.217l-6.556,11.356l-25.346,-14.633l6.557,-11.357c1.954,-3.384 5.109,-5.806 8.885,-6.817c3.776,-1.013 7.719,-0.493 11.104,1.462c3.385,1.954 5.806,5.109 6.817,8.885c1.012,3.775 0.493,7.719 -1.461,11.104Z" style="fill-rule:nonzero;"/></svg>